<svg width="23" height="22" viewBox="0 0 23 22" fill="none" xmlns="http://www.w3.org/2000/svg">
<path d="M11.2405 0.60257C5.01808 0.60257 0 4.61699 0 9.49055C0 12.6539 2.08752 15.4239 5.2188 17.0056L4.15898 20.9639C4.139 21.0232 4.13593 21.0869 4.15011 21.1479C4.16429 21.2089 4.19516 21.2647 4.23927 21.3091C4.30359 21.3658 4.38635 21.3972 4.47211 21.3974C4.54322 21.3917 4.61068 21.3636 4.6648 21.3171L9.22524 18.2421C9.89841 18.335 10.577 18.3832 11.2566 18.3866C17.4709 18.3866 22.4971 14.3721 22.4971 9.49055C22.4971 4.60896 17.4549 0.60257 11.2405 0.60257Z" fill="#0C0F14"/>
<path d="M3.93391 8.08546H2.70549C2.55323 8.08988 2.40286 8.05088 2.27192 7.97304C2.21379 7.93662 2.16382 7.88856 2.12513 7.83191C2.08644 7.77526 2.05988 7.71123 2.04712 7.64383C2.04321 7.6011 2.04321 7.55817 2.04712 7.51544C2.0433 7.43548 2.05882 7.35574 2.09236 7.28306C2.12591 7.21038 2.17649 7.14689 2.23981 7.09792C2.37978 6.99654 2.54873 6.94299 2.72154 6.94532H6.42288C6.57634 6.93992 6.72774 6.982 6.85644 7.06577C6.91594 7.10058 6.96697 7.14821 7.00585 7.20514C7.04473 7.26207 7.07048 7.32689 7.08125 7.39498C7.08517 7.43503 7.08517 7.47539 7.08125 7.51544C7.08504 7.59655 7.06955 7.67738 7.03606 7.75134C7.00256 7.82531 6.95201 7.89023 6.88856 7.94089C6.75199 8.04215 6.58468 8.09323 6.41485 8.08546H5.22657V12.3087C5.2314 12.3987 5.21747 12.4886 5.18568 12.5729C5.15389 12.6572 5.10493 12.734 5.0419 12.7984C4.98146 12.86 4.90881 12.9083 4.82861 12.9401C4.74841 12.9719 4.66243 12.9865 4.57622 12.9831C4.42544 12.9874 4.27785 12.9392 4.15872 12.8467C4.04531 12.7563 3.96834 12.6279 3.94194 12.4853C3.93401 12.4267 3.93401 12.3673 3.94194 12.3087L3.93391 8.08546Z" fill="#FEE500"/>
<path d="M7.43556 7.25847C7.47087 7.12635 7.55381 7.01194 7.6684 6.93729C7.7905 6.86809 7.92963 6.8347 8.06984 6.84095H8.37494C8.52372 6.83562 8.67105 6.87176 8.80047 6.94533C8.93762 7.03756 9.03507 7.17799 9.07346 7.33874L10.6792 11.8751C10.7209 11.9935 10.7557 12.1141 10.7836 12.2365C10.7864 12.2873 10.7864 12.3382 10.7836 12.389C10.7863 12.4672 10.7719 12.5451 10.7414 12.6172C10.7109 12.6893 10.665 12.7539 10.607 12.8065C10.5507 12.8641 10.4832 12.9096 10.4086 12.94C10.334 12.9704 10.2539 12.985 10.1734 12.9831C10.0496 12.9954 9.92521 12.9657 9.82034 12.8987C9.71547 12.8317 9.63621 12.7313 9.59534 12.6138L9.25812 11.6263H7.14652L6.8093 12.6138C6.76942 12.7337 6.6892 12.836 6.58233 12.9033C6.47545 12.9707 6.34853 12.9989 6.22319 12.9831C6.08742 12.9867 5.95443 12.9442 5.84583 12.8626C5.74002 12.7785 5.66863 12.6586 5.64511 12.5255C5.64085 12.4801 5.64085 12.4344 5.64511 12.389C5.63132 12.3093 5.63132 12.2279 5.64511 12.1482C5.64511 12.0598 5.70131 11.9634 5.73342 11.8751L7.43556 7.25847ZM8.23845 8.31031L7.4757 10.719H8.99317L8.23845 8.31031Z" fill="#FEE500"/>
<path d="M10.9675 7.51553C10.9593 7.33535 11.0228 7.15928 11.1441 7.02578C11.2058 6.96359 11.2798 6.91498 11.3614 6.88318C11.443 6.85137 11.5304 6.83698 11.6178 6.84103C11.7682 6.83928 11.915 6.88729 12.0353 6.97756C12.1469 7.07174 12.2209 7.20274 12.2441 7.34686C12.252 7.40278 12.252 7.45961 12.2441 7.51553V11.7388H14.452C14.6051 11.7368 14.7555 11.7785 14.8856 11.8591C14.9441 11.8952 14.9943 11.9431 15.033 11.9999C15.0718 12.0566 15.0981 12.1208 15.1104 12.1883C15.1104 12.1883 15.1104 12.2686 15.1104 12.3088C15.1142 12.3887 15.0987 12.4684 15.0652 12.5411C15.0316 12.6137 14.981 12.6773 14.9177 12.7263C14.7778 12.8277 14.6088 12.8811 14.436 12.8788H11.7222C11.5494 12.8899 11.3776 12.8449 11.2324 12.7504C11.1026 12.6533 11.0161 12.5092 10.9916 12.349C10.9857 12.2607 10.9857 12.1722 10.9916 12.0839L10.9675 7.51553Z" fill="#FEE500"/>
<path d="M15.2551 7.51557C15.2502 7.33591 15.3133 7.16105 15.4317 7.02582C15.552 6.91647 15.7064 6.85191 15.8687 6.84313C16.0311 6.83435 16.1915 6.88186 16.3229 6.9776C16.4369 7.07095 16.5137 7.20189 16.5397 7.3469C16.5436 7.40303 16.5436 7.45944 16.5397 7.51557V9.48262L18.571 7.13814C18.6493 7.05816 18.7324 6.98315 18.8199 6.9134C18.9024 6.86429 18.9969 6.83919 19.0929 6.84107C19.2332 6.8403 19.3704 6.88233 19.4863 6.96152C19.5409 6.99828 19.5875 7.04571 19.6234 7.10089C19.6592 7.15607 19.6836 7.21789 19.695 7.2827C19.6983 7.2986 19.6983 7.31503 19.695 7.33092C19.6911 7.34945 19.6911 7.36855 19.695 7.38708C19.6948 7.47157 19.6726 7.55458 19.6308 7.62799C19.5882 7.70571 19.537 7.77834 19.4783 7.84469L18.1455 9.30601L19.7512 11.795V11.8752C19.8346 11.9903 19.8996 12.1177 19.9439 12.2527V12.2927C19.9532 12.3858 19.9398 12.4797 19.9049 12.5664C19.8699 12.6531 19.8144 12.73 19.7432 12.7905C19.6093 12.8918 19.4454 12.9455 19.2775 12.9431C19.166 12.9477 19.0552 12.9227 18.9564 12.8708C18.8495 12.7991 18.7613 12.7027 18.6995 12.5898L17.2061 10.1811L16.4915 10.9279V12.2686C16.4963 12.4483 16.4332 12.6232 16.3149 12.7584C16.2514 12.8204 16.1759 12.8688 16.0931 12.9006C16.0103 12.9324 15.9218 12.9468 15.8331 12.9431C15.685 12.9462 15.5403 12.898 15.4237 12.8066C15.3102 12.7162 15.2333 12.588 15.2069 12.4453C15.1989 12.3867 15.1989 12.3272 15.2069 12.2686L15.2551 7.51557Z" fill="#FEE500"/>
</svg>
